HIERARCHY
ROOT Hips
{
	OFFSET 0.00000 0.00000 0.00000
	CHANNELS 6 Xposition Yposition Zposition Zrotation Yrotation Xrotation 
	JOINT LHipJoint
	{
		OFFSET 0 0 0
		CHANNELS 3 Zrotation Yrotation Xrotation
		JOINT LeftHip
		{
			OFFSET 1.57314 -1.85774 0.63783
			CHANNELS 3 Zrotation Yrotation Xrotation
			JOINT LeftKnee
			{
				OFFSET 2.57982 -7.08799 0.00000
				CHANNELS 3 Zrotation Yrotation Xrotation
				JOINT LeftAnkle
				{
					OFFSET 2.63993 -7.25315 0.00000
					CHANNELS 3 Zrotation Yrotation Xrotation
					JOINT LeftToe
					{
						OFFSET 0.16864 -0.46332 2.12791
						CHANNELS 3 Zrotation Yrotation Xrotation
						End Site
						{
							OFFSET 0.00000 -0.00000 1.09718
						}
					}
				}
			}
		}
	}
	JOINT RHipJoint
	{
		OFFSET 0 0 0
		CHANNELS 3 Zrotation Yrotation Xrotation
		JOINT RightHip
		{
			OFFSET -1.56006 -1.85774 0.63784
			CHANNELS 3 Zrotation Yrotation Xrotation
			JOINT RightKnee
			{
				OFFSET -2.54246 -6.98536 0.00000
				CHANNELS 3 Zrotation Yrotation Xrotation
				JOINT RightAnkle
				{
					OFFSET -2.65791 -7.30256 0.00000
					CHANNELS 3 Zrotation Yrotation Xrotation
					JOINT RightToe
					{
						OFFSET -0.18435 -0.50650 2.16316
						CHANNELS 3 Zrotation Yrotation Xrotation
						End Site
						{
							OFFSET -0.00000 -0.00000 1.11780
						}
					}
				}
			}
		}
	}
	JOINT lowerback
	{
		OFFSET 0 0 0
		CHANNELS 3 Zrotation Yrotation Xrotation
		JOINT Chest
		{
			OFFSET -0.00136 1.92812 -0.29638
			CHANNELS 3 Zrotation Yrotation Xrotation
			JOINT Chest2
			{
				OFFSET -0.00528 1.96223 -0.02928
				CHANNELS 3 Zrotation Yrotation Xrotation
				JOINT lowerneck
				{
					OFFSET 0 0 0
					CHANNELS 3 Zrotation Yrotation Xrotation
					JOINT Neck
					{
						OFFSET -0.01015 1.75586 0.07797
						CHANNELS 3 Zrotation Yrotation Xrotation
						JOINT Head
						{
							OFFSET 0.05540 1.72452 0.04558
							CHANNELS 3 Zrotation Yrotation Xrotation
							End Site
							{
								OFFSET 0.02170 1.79958 0.00864
							}
						}
					}
				}
				JOINT LeftCollar
				{
					OFFSET 0 0 0
					CHANNELS 3 Zrotation Yrotation Xrotation
					JOINT LeftShoulder
					{
						OFFSET 3.16292 1.29277 -0.65728
CHANNELS 3 Zrotation Xrotation Yrotation
						JOINT LeftElbow
						{
OFFSET 0 -5.523020 -0.000000
CHANNELS 3 Zrotation Xrotation Yrotation
							JOINT LeftWrist
							{
OFFSET 0 -3.586750 -0.000000
CHANNELS 3 Zrotation Xrotation Yrotation
								JOINT lhand
								{
									OFFSET 0 0 0
CHANNELS 3 Zrotation Xrotation Yrotation
									JOINT LFingers
									{
OFFSET 0 -0.536410 -0.000000
CHANNELS 3 Zrotation Xrotation Yrotation
										End Site
										{
OFFSET 0 -0.432470 -0.000000
										}
									}
								}
								JOINT LThumb
								{
OFFSET 0 0.000000 0.000000
CHANNELS 3 Zrotation Xrotation Yrotation
									End Site
									{
OFFSET 0 -0.439070 0.439070
									}
								}
							}
						}
					}
				}
				JOINT RightCollar
				{
					OFFSET 0 0 0
					CHANNELS 3 Zrotation Yrotation Xrotation
					JOINT RightShoulder
					{
						OFFSET -3.08296 1.43376 -0.52927
CHANNELS 3 Zrotation Xrotation Yrotation
						JOINT RightElbow
						{
OFFSET 0 -5.847800 0.000000
CHANNELS 3 Zrotation Xrotation Yrotation
							JOINT RightWrist
							{
OFFSET 0 -3.627170 -0.000000
CHANNELS 3 Zrotation Xrotation Yrotation
								JOINT rhand
								{
									OFFSET 0 0 0
CHANNELS 3 Zrotation Xrotation Yrotation
									JOINT RFingers
									{
OFFSET 0 -0.650520 -0.000000
CHANNELS 3 Zrotation Xrotation Yrotation
										End Site
										{
OFFSET 0 -0.524460 -0.000000
										}
									}
								}
								JOINT RThumb
								{
OFFSET 0 0.000000 0.000000
CHANNELS 3 Zrotation Xrotation Yrotation
									End Site
									{
OFFSET 0 -0.532470 0.532470
									}
								}
							}
						}
					}
				}
			}
		}
	}
}
MOTION
Frames: 5
Frame Time: 0.008333333333333333
2.066785 17.373354 10.682476 -2.641683 -7.137562 3.139422 0.000000 0.000000 0.000000 -10.913052 7.862843 -11.098555 24.277920 19.547197 102.602211 0.727531 -2.581484 17.259095 1.283039 -6.350829 -18.128801 0.000000 0.000000 0.000000 28.880173 14.579101 -17.096893 -4.709565 -13.048648 39.551640 -0.602331 -1.635191 -15.325839 -0.105234 -2.028521 5.586730 1.770542 -1.435024 17.629833 1.556767 -1.436997 2.360155 1.002426 -0.727353 -7.344234 -0.682431 2.542738 -2.949732 0.109764 3.416511 -13.833110 0.067735 1.709858 -4.009115 0.000000 0.000000 0.000000 6.547472 12.206658 -46.157494 123.504874 -55.300590 88.558193 35.821383 -22.548450 -8.336578 0.000000 0.000000 0.000000 -7.125000 0.000000 0.000000 7.869438 40.102827 0.956328 0.000000 0.000000 0.000000 -7.106204 11.356103 33.798188 -87.049612 -59.961770 -57.445361 -39.970600 -24.674255 -24.134668 0.000000 0.000000 0.000000 7.125000 0.000000 0.000000 -6.352383 -0.172577 -6.414568
2.063354 17.359563 10.787227 -2.897248 -7.070686 3.213365 0.000000 0.000000 0.000000 -10.440757 7.640830 -11.858665 24.543961 19.492992 103.396034 0.722294 -2.841853 17.335486 0.740116 -4.893986 -13.770303 0.000000 0.000000 0.000000 29.194518 14.394002 -16.843180 -4.739595 -13.084145 39.684821 -0.631492 -1.548074 -15.640916 -0.080601 -1.790864 4.929290 2.000926 -1.448473 17.636100 1.625702 -1.405091 2.356564 0.938477 -0.717358 -7.355601 -0.672093 2.532515 -2.822795 0.100593 3.402034 -13.986829 0.060004 1.702173 -4.088044 0.000000 0.000000 0.000000 6.432017 12.635475 -45.920683 123.354723 -55.347271 88.434778 35.881649 -22.549251 -8.403134 0.000000 0.000000 0.000000 -7.125000 0.000000 0.000000 7.926113 40.189281 0.946585 0.000000 0.000000 0.000000 -7.127612 10.807508 34.074864 -87.603536 -59.975310 -57.924884 -39.600700 -24.567766 -24.068203 0.000000 0.000000 0.000000 7.125000 0.000000 0.000000 -6.150748 0.029470 -6.185305
2.059930 17.347092 10.890973 -3.062047 -6.971204 3.272879 0.000000 0.000000 0.000000 -10.098969 7.355064 -12.632292 24.794482 19.438162 104.146023 0.712110 -3.092652 17.357226 0.364298 -3.876518 -10.729636 0.000000 0.000000 0.000000 29.408176 14.171596 -16.600357 -4.764916 -13.113992 39.796925 -0.664637 -1.412472 -15.969704 -0.059630 -1.549761 4.263372 2.147471 -1.465137 17.659926 1.668363 -1.394664 2.348687 0.899582 -0.715733 -7.379774 -0.645496 2.516046 -2.675816 0.083841 3.378540 -14.162112 0.046674 1.689398 -4.178797 0.000000 0.000000 0.000000 6.332075 13.057099 -45.695703 123.209705 -55.392013 88.315499 35.984844 -22.563475 -8.478211 0.000000 0.000000 0.000000 -7.125000 0.000000 0.000000 8.021876 40.290782 0.937545 0.000000 0.000000 0.000000 -7.148553 10.257916 34.361827 -88.162434 -59.985641 -58.408765 -39.273635 -24.485949 -23.985128 0.000000 0.000000 0.000000 7.125000 0.000000 0.000000 -5.977017 0.234955 -5.985646
2.056523 17.337509 10.992522 -3.028426 -6.800446 3.300851 0.000000 0.000000 0.000000 -10.042476 6.929929 -13.435469 25.011074 19.381967 104.800192 0.691114 -3.322533 17.259496 0.353777 -3.819545 -10.569810 0.000000 0.000000 0.000000 29.401726 13.867634 -16.381340 -4.779943 -13.131488 39.862955 -0.706492 -1.170881 -16.328466 -0.046662 -1.301126 3.578921 2.110740 -1.488832 17.722136 1.653588 -1.431190 2.331442 0.915455 -0.732407 -7.431944 -0.583354 2.485924 -2.485022 0.050517 3.335335 -14.384537 0.021104 1.665498 -4.295395 0.000000 0.000000 0.000000 6.266045 13.462999 -45.496584 123.075907 -55.432519 88.205259 36.181881 -22.607045 -8.571915 0.000000 0.000000 0.000000 -7.125000 0.000000 0.000000 8.203087 40.425174 0.930044 0.000000 0.000000 0.000000 -7.168474 9.706142 34.671278 -88.732208 -59.988957 -58.902170 -39.040209 -24.458069 -23.865739 0.000000 0.000000 0.000000 7.125000 0.000000 0.000000 -5.864283 0.447956 -5.850705
2.053115 17.327926 11.094072 -2.994805 -6.629688 3.328823 0.000000 0.000000 0.000000 -9.985984 6.504794 -14.238646 25.227667 19.325772 105.454362 0.670118 -3.552414 17.161766 0.343256 -3.762572 -10.409984 0.000000 0.000000 0.000000 29.395276 13.563673 -16.162323 -4.794969 -13.148985 39.928984 -0.748346 -0.929290 -16.687227 -0.033693 -1.052490 2.894470 2.074008 -1.512527 17.784347 1.638813 -1.467716 2.314197 0.931328 -0.749080 -7.484114 -0.521212 2.455802 -2.294229 0.017193 3.292131 -14.606962 -0.004466 1.641597 -4.411994 0.000000 0.000000 0.000000 6.200016 13.868898 -45.297465 122.942109 -55.473024 88.095018 36.378919 -22.650616 -8.665620 0.000000 0.000000 0.000000 -7.125000 0.000000 0.000000 8.384297 40.559567 0.922542 0.000000 0.000000 0.000000 -7.188395 9.154368 34.980728 -89.301981 -59.992274 -59.395576 -38.806783 -24.430189 -23.746350 0.000000 0.000000 0.000000 7.125000 0.000000 0.000000 -5.751550 0.660958 -5.715763
